control3min_grf.mot
version=1
nRows=15
nColumns 19
inDegrees=yes
endheader
time	1_ground_force_vx	1_ground_force_vy	1_ground_force_vz	1_ground_force_px	1_ground_force_py	1_ground_force_pz	1_ground_torque_x	1_ground_torque_y	1_ground_torque_z	2_ground_force_vx	2_ground_force_vy	2_ground_force_vz	2_ground_force_px	2_ground_force_py	2_ground_force_pz	2_ground_torque_x	2_ground_torque_y	2_ground_torque_z
            0.005000	           -0.182858	           -4.686353	           -0.157210	           -0.353328	            0.006482	           -0.470830	           -0.724327	            0.010867	           -0.438164	            0.102881	           -2.576734	           -0.290807	           -0.280533	            0.005195	           -0.620439	           -0.431847	           -0.085895	           -0.207472
            0.005500	           -0.411081	           -4.507901	            0.256835	           -0.353328	            0.006482	           -0.470830	           -0.854447	           -0.082085	           -0.354029	           -0.369188	           -1.655676	           -0.850460	           -0.280533	            0.005195	           -0.620439	           -0.563354	           -0.077119	           -0.150832
            0.006000	           -0.593380	           -4.149371	            0.717396	           -0.353328	            0.006482	           -0.470830	           -0.686634	           -0.275991	           -0.419503	           -0.275111	           -1.837142	           -1.508150	           -0.280533	            0.005195	           -0.620439	           -0.488272	           -0.058009	           -0.131946
            0.006500	           -0.317670	           -5.231699	            0.895499	           -0.353328	            0.006482	           -0.470830	           -0.806664	           -0.164477	           -0.519749	           -0.512101	           -1.100725	           -1.693135	           -0.280533	            0.005195	           -0.620439	           -0.469419	           -0.076847	           -0.132022
            0.007000	           -0.684806	           -4.330048	            0.808562	           -0.353328	            0.006482	           -0.470830	           -0.784468	           -0.118669	           -0.478883	           -0.180541	           -2.022626	           -1.039566	           -0.280533	            0.005195	           -0.620439	           -0.525731	           -0.095754	           -0.188616
            0.007500	           -0.319006	           -4.148139	            0.441577	           -0.353328	            0.006482	           -0.470830	           -0.768830	           -0.007751	           -0.425218	            0.148361	           -2.207933	           -0.383369	           -0.280533	            0.005195	           -0.620439	           -0.450514	           -0.105271	           -0.094430
            0.008000	           -0.182061	           -4.687729	            0.163782	           -0.353328	            0.006482	           -0.470830	           -0.888192	            0.020091	           -0.437717	            0.289136	           -2.209267	            0.132780	           -0.280533	            0.005195	           -0.620439	           -0.469273	           -0.123908	           -0.188741
            0.008500	            0.001311	           -4.687694	            0.163327	           -0.353328	            0.006482	           -0.470830	           -0.812933	           -0.044756	           -0.373969	            0.336548	           -2.392409	           -0.102537	           -0.280533	            0.005195	           -0.620439	           -0.394021	           -0.152062	           -0.170024
            0.009000	           -0.411129	           -4.868236	            0.209434	           -0.353328	            0.006482	           -0.470830	           -0.758194	           -0.184068	           -0.279500	           -0.367612	           -2.025981	           -0.288637	           -0.280533	            0.005195	           -0.620439	           -0.506940	           -0.077386	           -0.018904
            0.009500	           -0.593360	           -6.131704	            0.571325	           -0.353328	            0.006482	           -0.470830	           -0.754639	           -0.220468	           -0.437823	           -0.606699	           -0.736282	           -0.706291	           -0.280533	            0.005195	           -0.620439	           -0.525698	           -0.096023	           -0.113215
            0.010000	           -0.685132	           -3.788858	            0.719169	           -0.353328	            0.006482	           -0.470830	           -0.762029	           -0.174289	           -0.441600	           -0.416243	           -1.654171	           -1.319721	           -0.280533	            0.005195	           -0.620439	           -0.488314	           -0.057673	           -0.226197
            0.010500	           -0.500994	           -4.871399	            0.943356	           -0.353328	            0.006482	           -0.470830	           -0.714685	           -0.155862	           -0.396185	           -0.370037	           -1.470021	           -1.272156	           -0.280533	            0.005195	           -0.620439	           -0.469342	           -0.095819	           -0.113239
            0.011000	           -0.226634	           -5.410767	            0.619363	           -0.353328	            0.006482	           -0.470830	           -0.644285	           -0.007920	           -0.365180	           -0.088794	           -1.470178	           -0.943779	           -0.280533	            0.005195	           -0.620439	           -0.525484	           -0.161990	           -0.170002
            0.011500	           -0.182306	           -3.966470	            0.121018	           -0.353328	            0.006482	           -0.470830	           -0.717700	           -0.007689	           -0.419487	            0.289575	           -2.391574	           -0.384086	           -0.280533	            0.005195	           -0.620439	           -0.469392	           -0.095416	           -0.226340
            0.012000	           -0.274463	           -4.506302	           -0.110353	           -0.353328	            0.006482	           -0.470830	           -0.876574	           -0.044663	           -0.441940	            0.382672	           -2.207590	           -0.242685	           -0.280533	            0.005195	           -0.620439	           -0.394277	           -0.076575	           -0.132053
